<?xml version="1.0" encoding="UTF-8"?>
<svg version="1.1" xmlns="http://www.w3.org/2000/svg" width="128" height="128">
<path d="M0 0 C4.39127548 0.35812887 6.26549622 1.82499861 9.21484375 5 C10.36823242 6.2065625 10.36823242 6.2065625 11.54492188 7.4375 C13.13815582 9.14388607 14.72930881 10.85221752 16.31835938 12.5625 C17.08857422 13.366875 17.85878906 14.17125 18.65234375 15 C19.34320068 15.7425 20.03405762 16.485 20.74584961 17.25 C23.48489074 19.37644285 25.58750915 19.68730285 29 20 C29.226875 21.0725 29.45375 22.145 29.6875 23.25 C31.15211528 27.43461509 32.28650609 28.70117044 36 31 C36.721875 31.144375 37.44375 31.28875 38.1875 31.4375 C38.785625 31.623125 39.38375 31.80875 40 32 C41.52164099 34.89111788 42 36.71823412 42 40 C40.35 40 38.7 40 37 40 C37 39.01 37 38.02 37 37 C35.68 37 34.36 37 33 37 C33 38.32 33 39.64 33 41 C33.62648437 40.97679687 34.25296875 40.95359375 34.8984375 40.9296875 C35.71570312 40.91164062 36.53296875 40.89359375 37.375 40.875 C38.18710937 40.85179687 38.99921875 40.82859375 39.8359375 40.8046875 C42 41 42 41 44 43 C44.99 43.33 45.98 43.66 47 44 C50 45 50 45 52 47 C52.1953125 49.3828125 52.1953125 49.3828125 52.125 52.125 C52.10695312 53.03507812 52.08890625 53.94515625 52.0703125 54.8828125 C52.04710937 55.58148438 52.02390625 56.28015625 52 57 C54.31 57 56.62 57 59 57 C59 58.98 59 60.96 59 63 C61.97 63 64.94 63 68 63 C68.495 64.485 68.495 64.485 69 66 C68.01 66.495 68.01 66.495 67 67 C67.66 67.66 68.32 68.32 69 69 C68.44444444 73.55555556 68.44444444 73.55555556 67 75 C64.0625 75.1875 64.0625 75.1875 61 75 C59 73 59 73 58.875 69.375 C58.91625 68.26125 58.9575 67.1475 59 66 C57.02 66 55.04 66 53 66 C53 67.65 53 69.3 53 71 C48.03926578 72.32286246 43.08888488 72.08893197 38 72 C38 72.66 38 73.32 38 74 C38.680625 73.95875 39.36125 73.9175 40.0625 73.875 C43.59924168 74.02549965 46.63323033 74.94375853 50 76 C49.91298828 76.92619141 49.91298828 76.92619141 49.82421875 77.87109375 C49.49381456 84.0732524 50.42543813 87.7409959 53.90625 92.89453125 C55.288404 95.55517769 55.54584401 97.04491346 55 100 C52.953125 101.87109375 52.953125 101.87109375 50.25 103.4375 C49.36828125 103.97246094 48.4865625 104.50742188 47.578125 105.05859375 C45 106 45 106 42.9140625 105.53125 C40.24880763 103.3990461 38.86227647 100.99633435 37.125 98.0625 C36.61163086 97.20265503 36.61163086 97.20265503 36.08789062 96.32543945 C32.91286469 90.96499645 29.91331695 85.50661045 27 80 C22.87364896 81.61508728 20.1948946 84.62411073 17.1875 87.75 C16.11863237 88.83345857 15.04832937 89.91550306 13.9765625 90.99609375 C13.46383789 91.51413574 12.95111328 92.03217773 12.42285156 92.56591797 C9.70917318 95.30101522 7.14317671 97.75487378 4 100 C1.30859375 99.63671875 1.30859375 99.63671875 -1 99 C-1.01458252 98.15405273 -1.02916504 97.30810547 -1.04418945 96.43652344 C-1.10596948 93.23793341 -1.18024584 90.03992226 -1.26245117 86.84179688 C-1.29530044 85.46885756 -1.32345067 84.09579613 -1.34643555 82.72265625 C-1.48331648 74.75443844 -2.02555846 67.42365624 -4.27026367 59.75488281 C-5.82252729 53.894815 -6.14306625 48.13062915 -6.09765625 42.09765625 C-6.0962413 41.3750914 -6.09482635 40.65252655 -6.09336853 39.9080658 C-6.08782225 37.62616635 -6.0752802 35.34436921 -6.0625 33.0625 C-6.05747804 31.50455872 -6.05291636 29.94661588 -6.04882812 28.38867188 C-6.0378705 24.59240919 -6.02064372 20.79622187 -6 17 C-5.35184326 16.73646729 -4.70368652 16.47293457 -4.03588867 16.20141602 C-3.36404541 15.80494873 -2.69220215 15.40848145 -2 15 C-1.32955699 11.69235095 -1.32955699 11.69235095 -1.3125 7.9375 C-1.06842105 1.06842105 -1.06842105 1.06842105 0 0 Z M28 31 C28 31.66 28 32.32 28 33 C29.32 32.34 30.64 31.68 32 31 C30.68 31 29.36 31 28 31 Z M25 38 C25 38.99 25 39.98 25 41 C25.99 41 26.98 41 28 41 C27.67 40.01 27.34 39.02 27 38 C26.34 38 25.68 38 25 38 Z M32 46 C31.34 47.32 30.68 48.64 30 50 C33.465 49.505 33.465 49.505 37 49 C37 48.01 37 47.02 37 46 C35.35 46 33.7 46 32 46 Z M45 47 C45 48.32 45 49.64 45 51 C46.32 51 47.64 51 49 51 C49 49.68 49 48.36 49 47 C47.68 47 46.36 47 45 47 Z M28 52 C28 52.33 28 52.66 28 53 C30.31 53 32.62 53 35 53 C35 52.67 35 52.34 35 52 C32.69 52 30.38 52 28 52 Z M44 56 C42.89163577 57.88316159 42.89163577 57.88316159 42 60 C42.33 60.66 42.66 61.32 43 62 C44.65 61.67 46.3 61.34 48 61 C47.67 59.35 47.34 57.7 47 56 C46.01 56 45.02 56 44 56 Z " fill="#B0B0B0" transform="translate(20,6)"/>
<path d="M0 0 C2.85473633 2.34277344 2.85473633 2.34277344 3.58349609 5.57226562 C3.57116943 6.83200195 3.55884277 8.09173828 3.54614258 9.38964844 C3.54476791 10.07851135 3.54339325 10.76737427 3.54197693 11.47711182 C3.53292132 12.93981365 3.509295 14.40248749 3.47216797 15.86474609 C3.41842082 18.04473038 3.41063239 20.22079877 3.41137695 22.40136719 C3.22500568 47.28784946 -3.99241368 68.85091693 -21.92456055 86.67456055 C-28.30208847 92.7219944 -39.05115121 102.21581276 -48.14526367 102.40527344 C-60.65057188 100.03219789 -70.56371204 89.01100741 -79.14526367 80.34277344 C-78.48526367 79.02277344 -77.82526367 77.70277344 -77.14526367 76.34277344 C-75.82526367 77.00277344 -74.50526367 77.66277344 -73.14526367 78.34277344 C-73.14526367 79.00277344 -73.14526367 79.66277344 -73.14526367 80.34277344 C-72.55745117 80.60703125 -71.96963867 80.87128906 -71.36401367 81.14355469 C-69.06752155 82.38479251 -67.52458015 83.72926182 -65.64526367 85.53027344 C-57.15113001 93.18495434 -57.15113001 93.18495434 -46.69213867 96.26855469 C-30.74305117 90.4711103 -17.56062531 76.15629169 -10.14526367 61.34277344 C-4.32927269 47.70271273 -2.84796812 35.35639378 -3.02026367 20.71777344 C-3.03031759 19.22168571 -3.03943916 17.7255914 -3.04760742 16.22949219 C-3.0694206 12.60044717 -3.10381626 8.97165359 -3.14526367 5.34277344 C-12.54002393 0.4519404 -12.54002393 0.4519404 -22.52026367 -2.96972656 C-23.64174805 -3.27523438 -24.76323242 -3.58074219 -25.91870117 -3.89550781 C-41.73651298 -7.62973699 -59.49054668 -6.93363706 -75.14526367 -2.65722656 C-76.13526367 -3.97722656 -77.12526367 -5.29722656 -78.14526367 -6.65722656 C-54.02783648 -18.44796874 -22.72518374 -11.97380635 0 0 Z " fill="#A5A5A5" transform="translate(112.145263671875,20.6572265625)"/>
<path d="M0 0 C2.5 0.25 2.5 0.25 4.5 2.25 C3.94444444 6.80555556 3.94444444 6.80555556 2.5 8.25 C-0.4375 8.4375 -0.4375 8.4375 -3.5 8.25 C-4.16 7.59 -4.82 6.93 -5.5 6.25 C-5.03099752 2.49798018 -4.00575239 0.40057524 0 0 Z " fill="#CACACA" transform="translate(84.5,72.75)"/>
<path d="M0 0 C2.64 0 5.28 0 8 0 C8 2.64 8 5.28 8 8 C5.66705225 8.04241723 3.33297433 8.04092937 1 8 C0 7 0 7 -0.0625 3.4375 C-0.041875 2.303125 -0.02125 1.16875 0 0 Z " fill="#C7C7C7" transform="translate(71,63)"/>
<path d="M0 0 C3.3 0 6.6 0 10 0 C10 1.98 10 3.96 10 6 C8.54207116 6.05399736 7.08357288 6.09279177 5.625 6.125 C4.81289063 6.14820312 4.00078125 6.17140625 3.1640625 6.1953125 C1 6 1 6 -1 4 C-0.67 2.68 -0.34 1.36 0 0 Z " fill="#C8C8C8" transform="translate(57,72)"/>
<path d="M0 0 C2.97 0 5.94 0 9 0 C10.25664978 2.90600261 11 4.79604584 11 8 C9.35 8 7.7 8 6 8 C6 7.01 6 6.02 6 5 C4.02 5 2.04 5 0 5 C0 3.35 0 1.7 0 0 Z " fill="#C8C8C8" transform="translate(51,38)"/>
<path d="M0 0 C2.31 0 4.62 0 7 0 C7 2.31 7 4.62 7 7 C4.69 7 2.38 7 0 7 C0 4.69 0 2.38 0 0 Z " fill="#C1C1C1" transform="translate(63,82)"/>
<path d="M0 0 C0.598125 0.226875 1.19625 0.45375 1.8125 0.6875 C2.4375 3.0625 2.4375 3.0625 2.8125 5.6875 C2.1525 6.3475 1.4925 7.0075 0.8125 7.6875 C-1.8125 7.3125 -1.8125 7.3125 -4.1875 6.6875 C-4.875 4.875 -4.875 4.875 -5.1875 2.6875 C-3.58493056 0.24147296 -2.95482043 -0.4221172 0 0 Z " fill="#A0A0A0" transform="translate(87.1875,50.3125)"/>
<path d="M0 0 C2.97 0 5.94 0 9 0 C9.33 0.99 9.66 1.98 10 3 C9.16855469 3.30744141 9.16855469 3.30744141 8.3203125 3.62109375 C7.59585938 3.89050781 6.87140625 4.15992187 6.125 4.4375 C5.40570313 4.70433594 4.68640625 4.97117187 3.9453125 5.24609375 C1.96351155 5.97916854 1.96351155 5.97916854 0 7 C0 5.68 0 4.36 0 3 C-1.98 3 -3.96 3 -6 3 C-6 2.67 -6 2.34 -6 2 C-4.02 2 -2.04 2 0 2 C0 1.34 0 0.68 0 0 Z " fill="#898989" transform="translate(79,69)"/>
<path d="M0 0 C2.31 0 4.62 0 7 0 C7 1.98 7 3.96 7 6 C4.69 6 2.38 6 0 6 C0 4.02 0 2.04 0 0 Z " fill="#AEAEAE" transform="translate(70,45)"/>
<path d="M0 0 C2.125 0.375 2.125 0.375 4 1 C4.625 2.875 4.625 2.875 5 5 C4.34 5.66 3.68 6.32 3 7 C0.875 6.625 0.875 6.625 -1 6 C-1.625 4.125 -1.625 4.125 -2 2 C-1.34 1.34 -0.68 0.68 0 0 Z " fill="#C9C9C9" transform="translate(34,51)"/>
<path d="M0 0 C1.65 0 3.3 0 5 0 C5.33 1.65 5.66 3.3 6 5 C3.625 5.625 3.625 5.625 1 6 C0.34 5.34 -0.32 4.68 -1 4 C-0.625 1.875 -0.625 1.875 0 0 Z " fill="#9E9E9E" transform="translate(69,36)"/>
<path d="M0 0 C1.67542976 0.28604898 3.34385343 0.61781233 5 1 C5 2.65 5 4.3 5 6 C1.25 7.125 1.25 7.125 -1 6 C-1.042721 4.33388095 -1.04063832 2.66617115 -1 1 C-0.67 0.67 -0.34 0.34 0 0 Z " fill="#ABABAB" transform="translate(55,27)"/>
<path d="M0 0 C2.625 0.375 2.625 0.375 5 1 C5 2.65 5 4.3 5 6 C3.35 6 1.7 6 0 6 C-0.66 4.68 -1.32 3.36 -2 2 C-1.34 1.34 -0.68 0.68 0 0 Z " fill="#C6C6C6" transform="translate(46,49)"/>
<path d="M0 0 C1.65 0 3.3 0 5 0 C5 1.98 5 3.96 5 6 C3.35 6 1.7 6 0 6 C0 4.02 0 2.04 0 0 Z " fill="#C8C8C8" transform="translate(40,36)"/>
<path d="M0 0 C2.64 0 5.28 0 8 0 C8 0.99 8 1.98 8 3 C5.03 3 2.06 3 -1 3 C-0.67 2.01 -0.34 1.02 0 0 Z " fill="#C8C8C8" transform="translate(39,58)"/>
<path d="M0 0 C1.65 0.33 3.3 0.66 5 1 C4.34 2.32 3.68 3.64 3 5 C1.68 4.67 0.36 4.34 -1 4 C-0.67 2.68 -0.34 1.36 0 0 Z " fill="#CBCBCB" transform="translate(54,81)"/>
<path d="M0 0 C1.98 0 3.96 0 6 0 C6 1.32 6 2.64 6 4 C4.02 4 2.04 4 0 4 C0 2.68 0 1.36 0 0 Z " fill="#D7D7D7" transform="translate(43,27)"/>
<path d="M0 0 C1.32 0 2.64 0 4 0 C4.33 1.32 4.66 2.64 5 4 C3.35 4.33 1.7 4.66 0 5 C0 3.35 0 1.7 0 0 Z " fill="#C7C7C7" transform="translate(56,55)"/>
<path d="M0 0 C1.41377341 2.63904371 2.37240135 5.07120629 3 8 C1.35 8 -0.3 8 -2 8 C-2 7.01 -2 6.02 -2 5 C-1.34 5 -0.68 5 0 5 C0 3.35 0 1.7 0 0 Z " fill="#7A7A7A" transform="translate(59,38)"/>
<path d="M0 0 C2.31 0.66 4.62 1.32 7 2 C6.67 2.66 6.34 3.32 6 4 C4.68 4 3.36 4 2 4 C1.67 5.32 1.34 6.64 1 8 C1.020625 7.236875 1.04125 6.47375 1.0625 5.6875 C1.12942841 2.89814214 1.12942841 2.89814214 0 0 Z " fill="#666666" transform="translate(63,49)"/>
<path d="M0 0 C0.99 0 1.98 0 3 0 C3 1.32 3 2.64 3 4 C2.01 4.33 1.02 4.66 0 5 C-0.66 4.67 -1.32 4.34 -2 4 C-1.34 2.68 -0.68 1.36 0 0 Z " fill="#C7C7C7" transform="translate(60,48)"/>
</svg>
